<svg width="27" height="27" viewBox="0 0 27 27" fill="none" xmlns="http://www.w3.org/2000/svg">
<path d="M1.80428 7.0527C1.17631 7.0527 0.667145 7.56182 0.667145 8.18984V15.7708C0.667145 16.3988 1.17631 16.9079 1.80428 16.9079H2.56238V24.8686C2.56238 25.4966 3.07155 26.0057 3.69952 26.0057H8.2481C8.87612 26.0057 9.38523 25.4965 9.38523 24.8686V16.9079H10.5224V15.7708V14.6337V9.32697V8.18984V7.0527H1.80428Z" fill="#AEBFB2"/>
<path d="M25.3053 0.432678C24.6772 0.432678 24.1682 0.941841 24.1682 1.56981V2.46374L12.7968 6.57012V7.77914V8.18978V8.98811V14.9724V15.7707V16.1813V17.3902L24.1682 21.4966V22.0383C24.1682 22.6663 24.6772 23.1754 25.3053 23.1754C25.9332 23.1754 26.4424 22.6663 26.4424 22.0383V20.6983V3.26212V1.56981C26.4424 0.94179 25.9332 0.432678 25.3053 0.432678Z" fill="#AEBFB2"/>
</svg>
