<svg width="129" height="129" viewBox="0 0 129 129" fill="none" xmlns="http://www.w3.org/2000/svg">
<path d="M128.679 64.6344C128.679 81.7965 121.996 97.9315 109.861 110.067C97.7249 122.202 81.59 128.886 64.4278 128.886C52.4135 128.886 40.905 125.607 30.9171 119.479L38.2835 112.112C46.0413 116.401 54.9537 118.847 64.4278 118.847C94.3206 118.847 118.64 94.5271 118.64 64.6344C118.64 55.1603 116.194 46.2479 111.905 38.4902L119.272 31.1239C125.4 41.1115 128.679 52.6201 128.679 64.6344ZM7.4904 128.671L0.391613 121.572L15.5831 106.38C5.61431 94.7535 0.17627 80.1122 0.17627 64.6344C0.17627 47.4722 6.85968 31.3372 18.9949 19.2015C31.1307 7.06623 47.2656 0.382812 64.4278 0.382812C79.9057 0.382812 94.547 5.82085 106.174 15.7896L121.365 0.598156L128.464 7.69695L7.4904 128.671ZM22.7278 99.2353L99.0288 22.9343C89.6342 15.1253 77.5705 10.4221 64.4278 10.4221C34.535 10.4221 10.2156 34.7416 10.2156 64.6344C10.2156 77.7771 14.9185 89.8408 22.7278 99.2353Z" fill="url(#paint0_linear)"/>
<defs>
<linearGradient id="paint0_linear" x1="64.4278" y1="0.382813" x2="64.4278" y2="128.886" gradientUnits="userSpaceOnUse">
<stop offset="0.385417" stop-color="#63C132"/>
<stop offset="1" stop-color="#EB001B" stop-opacity="0.24"/>
</linearGradient>
</defs>
</svg>
