<svg width="27" height="27" viewBox="0 0 27 27" fill="none" xmlns="http://www.w3.org/2000/svg">
<path d="M25.4811 0.78949H8.65808C5.64323 0.78949 3.1906 3.06701 3.1906 5.86644V7.03804H1.92887C1.23206 7.03804 0.667145 7.56261 0.667145 8.20965C0.667145 8.85668 1.23206 9.38125 1.92887 9.38125H3.1906V12.5055H1.92887C1.23206 12.5055 0.667145 13.0301 0.667145 13.6771C0.667145 14.3242 1.23206 14.8487 1.92887 14.8487H3.1906V17.973H1.92887C1.23206 17.973 0.667145 18.4976 0.667145 19.1446C0.667145 19.7917 1.23206 20.3162 1.92887 20.3162H3.1906V21.4878C3.1906 24.2873 5.64323 26.5648 8.65808 26.5648H25.4811C26.1778 26.5648 26.7428 26.0402 26.7428 25.3932V1.96109C26.7428 1.31406 26.1778 0.78949 25.4811 0.78949ZM9.07866 19.9256C9.07866 16.9058 11.7148 14.4581 14.9667 14.4581C12.8763 14.4581 11.1815 12.8844 11.1815 10.9433C11.1815 9.00212 12.8763 7.4285 14.9667 7.4285C17.0571 7.4285 18.7519 9.00212 18.7519 10.9433C18.7519 12.8844 17.0571 14.4581 14.9667 14.4581C18.2186 14.4581 20.8548 16.9058 20.8548 19.9256H9.07866Z" fill="#AEBFB2"/>
</svg>
