<svg width="27" height="26" viewBox="0 0 27 26" fill="none" xmlns="http://www.w3.org/2000/svg">
<path d="M25.9598 11.4697C25.9593 11.4691 25.9587 11.4685 25.9581 11.4679L15.4743 0.984523C15.0274 0.53746 14.4333 0.291183 13.8013 0.291183C13.1693 0.291183 12.5752 0.537264 12.1282 0.984327L1.64983 11.4625C1.6463 11.466 1.64277 11.4697 1.63924 11.4732C0.721585 12.3962 0.723153 13.8937 1.64375 14.8143C2.06434 15.235 2.61984 15.4788 3.21376 15.5043C3.23788 15.5066 3.26219 15.5078 3.2867 15.5078H3.70455V23.2229C3.70455 24.7496 4.94672 25.9918 6.47379 25.9918H10.5754C10.9911 25.9918 11.3283 25.6547 11.3283 25.2389V19.1902C11.3283 18.4935 11.895 17.9268 12.5917 17.9268H15.0109C15.7076 17.9268 16.2743 18.4935 16.2743 19.1902V25.2389C16.2743 25.6547 16.6113 25.9918 17.0272 25.9918H21.1288C22.6559 25.9918 23.8981 24.7496 23.8981 23.2229V15.5078H24.2855C24.9173 15.5078 25.5114 15.2617 25.9587 14.8146C26.8802 13.8925 26.8806 12.3925 25.9598 11.4697Z" fill="#AEBFB2"/>
</svg>
