<svg width="27" height="27" viewBox="0 0 27 27" fill="none" xmlns="http://www.w3.org/2000/svg">
<path d="M26.3412 23.9526L24.5717 18.8029C25.4228 17.0826 25.8729 15.1649 25.8759 13.2355C25.881 9.91276 24.5954 6.77099 22.2558 4.38894C19.9158 2.00649 16.7977 0.665472 13.4758 0.612764C11.7354 0.584824 10.0467 0.905505 8.45383 1.56484C6.91753 2.20076 5.53981 3.12198 4.35898 4.30286C3.1781 5.48369 2.25689 6.86141 1.62096 8.3977C0.961527 9.99054 0.641198 11.6802 0.668786 13.4197C0.721394 16.7415 2.06246 19.8597 4.44486 22.1997C6.82223 24.5347 9.95594 25.8199 13.2715 25.8199C13.2779 25.8199 13.2848 25.8199 13.2913 25.8199C15.2208 25.8169 17.1384 25.3668 18.8589 24.5157L24.0086 26.2851C24.2066 26.3532 24.4096 26.3864 24.6103 26.3864C25.0873 26.3864 25.5512 26.199 25.9031 25.8471C26.4031 25.3472 26.5709 24.6213 26.3412 23.9526ZM13.1474 20.4008C12.7191 20.4008 12.4019 20.0507 12.3833 19.6367C12.3649 19.2241 12.7478 18.8726 13.1474 18.8726C13.5758 18.8726 13.893 19.2228 13.9115 19.6367C13.9301 20.0493 13.5471 20.4008 13.1474 20.4008ZM13.9115 14.5645V16.994C13.9115 17.416 13.5694 17.7581 13.1474 17.7581C12.7255 17.7581 12.3833 17.416 12.3833 16.994V13.8776C12.3833 13.4556 12.7255 13.1135 13.1474 13.1135C14.401 13.1135 15.4209 12.0936 15.4209 10.8401C15.4209 9.58654 14.401 8.56665 13.1474 8.56665C11.8939 8.56665 10.874 9.58654 10.874 10.8401C10.874 11.262 10.5319 11.6042 10.1099 11.6042C9.68797 11.6042 9.34584 11.262 9.34584 10.8401C9.34584 8.74391 11.0512 7.03846 13.1474 7.03846C15.2436 7.03846 16.949 8.74386 16.949 10.8401C16.949 12.6746 15.6428 14.2099 13.9115 14.5645Z" fill="#63C132"/>
</svg>
