<svg width="27" height="30" viewBox="0 0 27 30" fill="none" xmlns="http://www.w3.org/2000/svg">
<path d="M13.5563 0.254272C12.1348 0.254272 10.9784 1.41066 10.9784 2.83214V13.2009C10.9784 14.6224 12.1348 15.7787 13.5563 15.7787C14.9778 15.7787 16.1342 14.6224 16.1342 13.2009V2.83214C16.1342 1.41066 14.9778 0.254272 13.5563 0.254272Z" fill="#AEBFB2"/>
<path d="M22.1827 7.06837C21.0978 6.08984 19.519 6.20114 18.5716 7.17565C17.6189 8.15567 17.5453 9.8155 18.7522 10.9159C20.6677 12.6569 21.6359 15.2955 21.1773 17.9573C20.5547 21.5698 17.4129 24.4167 13.5561 24.4251C9.60534 24.4338 6.57873 21.517 5.95443 18.0889C5.46771 15.4112 6.36565 12.7301 8.35862 10.9175C9.56209 9.82191 9.49925 8.15475 8.54386 7.17365C7.59489 6.19913 6.00661 6.09385 4.91226 7.08429C1.88159 9.82936 0.299609 13.8875 0.739755 18.0009C1.43961 24.5411 6.96171 29.5821 13.5864 29.5821C20.1351 29.5821 25.497 24.529 26.3238 18.427C26.9003 14.1751 25.3521 9.92897 22.1827 7.06837Z" fill="#AEBFB2"/>
</svg>
