<svg width="26" height="30" viewBox="0 0 26 30" fill="none" xmlns="http://www.w3.org/2000/svg">
<path d="M12.9828 14.286C14.93 14.286 16.6161 13.5876 17.9937 12.2098C19.3713 10.8321 20.0697 9.14653 20.0697 7.19916C20.0697 5.25247 19.3713 3.56663 17.9935 2.18854C16.6156 0.811135 14.9298 0.112778 12.9828 0.112778C11.0355 0.112778 9.34983 0.811135 7.97219 2.18877C6.59455 3.5664 5.89597 5.25225 5.89597 7.19916C5.89597 9.14653 6.59455 10.8324 7.97241 12.21C9.35028 13.5874 11.0361 14.286 12.9828 14.286Z" fill="#AEBFB2"/>
<path d="M25.3829 22.7377C25.3432 22.1644 25.2628 21.539 25.1445 20.8785C25.0251 20.2132 24.8713 19.5842 24.6872 19.0093C24.4971 18.4151 24.2385 17.8283 23.9188 17.266C23.5871 16.6823 23.1974 16.1741 22.7601 15.7559C22.3028 15.3184 21.7429 14.9666 21.0955 14.71C20.4504 14.4548 19.7354 14.3255 18.9706 14.3255C18.6702 14.3255 18.3798 14.4488 17.8188 14.814C17.4735 15.0391 17.0697 15.2995 16.6189 15.5875C16.2335 15.8331 15.7114 16.0632 15.0664 16.2715C14.4372 16.4751 13.7983 16.5784 13.1678 16.5784C12.5372 16.5784 11.8986 16.4751 11.2687 16.2715C10.6244 16.0634 10.1023 15.8333 9.71727 15.5878C9.27078 15.3024 8.86672 15.0421 8.5163 14.8138C7.956 14.4485 7.66529 14.3253 7.36494 14.3253C6.59991 14.3253 5.88516 14.4548 5.24023 14.7103C4.59327 14.9664 4.03319 15.3182 3.57548 15.7561C3.13841 16.1746 2.74849 16.6826 2.41715 17.266C2.09772 17.8283 1.83912 18.4149 1.64876 19.0095C1.46491 19.5844 1.31114 20.2132 1.19171 20.8785C1.07341 21.5381 0.993048 22.1637 0.953315 22.7384C0.914255 23.3013 0.894501 23.8857 0.894501 24.4758C0.894501 26.0117 1.38275 27.2551 2.34555 28.1721C3.29645 29.077 4.55466 29.5361 6.08472 29.5361H20.2522C21.7822 29.5361 23.04 29.0772 23.9911 28.1721C24.9541 27.2558 25.4424 26.0122 25.4424 24.4756C25.4422 23.8828 25.4222 23.298 25.3829 22.7377Z" fill="#AEBFB2"/>
</svg>
